<?xml version="1.0" encoding="UTF-8" standalone="no"?>
<!DOCTYPE svg PUBLIC "-//W3C//DTD SVG 20010904//EN"
              "http://www.w3.org/TR/2001/REC-SVG-20010904/DTD/svg10.dtd">
<!-- ******************************************** -->
<!-- ************ Created by RomLabo ************ -->
<!-- ******************************************** -->
<svg xmlns="http://www.w3.org/2000/svg" width="100%" height="100%" 
    viewBox="0 0 512 512" class="header__svg">
    <!-- ******************************************** -->
    <!-- ************ Created by RomLabo ************ -->
    <!-- ******************************************** -->
    <path id="add__line1" style="fill: #348ada; stroke:none"
    d="M 204.74,234.00 C 178.45,234.00 125.50,234.00 125.50,234.00
    125.50,234.00 106.50,233.50 106.50,252.00 106.50,270.50 122.50,273.00 122.50,273.00
    122.50,273.00 180.97,273.00 204.43,273.00 205.00,273.00 224.00,254.00 224.00,254.00
    224.00,254.00 205.00,234.00 204.74,234.00 Z M 272.48,205.27
    C 272.39,178.90 272.00,124.00 272.00,124.00 272.00,124.00 271.50,108.00 254.00,107.50
    236.50,107.00 233.50,123.00 233.50,123.50 233.50,124.00 233.00,129.50 233.00,129.50
    233.00,129.50 233.34,186.22 233.46,206.17 233.50,206.50 252.00,224.50 252.00,224.50
    252.00,224.50 272.50,205.50 272.48,205.27 Z M 301.64,273.47
    C 328.43,273.35 379.00,273.00 379.00,273.00 379.00,273.00 397.00,272.50 397.00,254.00
    397.00,235.50 380.00,234.50 380.00,234.50 380.00,234.50 325.52,234.70 301.10,234.56
    301.00,235.00 281.50,253.50 281.50,253.50 281.50,253.50 302.00,273.50 301.64,273.47 Z
    M 252.50,282.50 C 252.50,282.50 233.00,302.50 233.00,302.13
    233.00,327.05 233.00,372.00 233.00,372.00 233.00,372.00 233.00,392.50 252.50,392.50
    272.00,392.50 272.50,375.50 272.50,375.50 272.50,375.50 272.50,324.71 272.50,300.97
    273.00,301.00 252.50,282.50 252.50,282.50 Z" />
</svg>
