<?xml version="1.0" encoding="UTF-8" standalone="no"?>
<!DOCTYPE svg PUBLIC "-//W3C//DTD SVG 20010904//EN"
              "http://www.w3.org/TR/2001/REC-SVG-20010904/DTD/svg10.dtd">
<!-- ******************************************** -->
<!-- ************ Created by RomLabo ************ -->
<!-- ******************************************** -->
<svg xmlns="http://www.w3.org/2000/svg" width="100%" height="100%" viewBox="0 0 512 512">
  <path id="close__line1" style="fill: #348ada;"
        d="M 233.00,206.00
           C 233.00,206.00 174.50,147.00 174.50,147.00
             174.50,147.00 160.50,136.50 146.00,149.50
             134.00,160.50 143.50,172.50 143.50,172.50
             143.50,172.50 203.50,234.00 203.50,234.00
             203.50,234.00 233.00,233.50 233.00,233.50
             233.00,233.50 233.00,206.00 233.00,206.00 Z
           M 272.50,234.50
           C 272.50,234.50 272.00,207.00 272.00,207.00
             272.00,207.00 331.50,148.50 331.50,148.50
             331.50,148.50 345.50,141.50 357.00,152.00
             367.50,161.50 359.50,176.00 359.50,176.00
             359.50,176.00 302.00,234.50 302.00,234.50
             302.00,234.50 272.50,234.50 272.50,234.50 Z
           M 273.00,274.00
           C 273.00,274.00 300.50,274.00 300.50,274.00
             300.50,274.00 353.00,326.50 353.00,326.50
             353.00,326.50 360.50,341.00 350.00,351.00
             339.50,361.00 327.00,356.00 327.00,356.00
             327.00,356.00 273.00,303.50 273.00,303.50
             273.00,303.50 273.00,274.00 273.00,274.00 Z
           M 232.50,274.00
           C 232.50,274.00 232.50,303.50 232.50,303.50
             232.50,303.50 176.50,359.00 176.50,359.00
             176.50,359.00 160.50,363.50 151.50,354.00
             142.50,344.50 148.50,332.00 148.50,332.00
             148.50,332.00 205.00,274.00 205.00,274.00
             205.00,274.00 232.50,274.00 232.50,274.00 Z" />
</svg>