<?xml version="1.0" encoding="UTF-8" standalone="no"?>
<!DOCTYPE svg PUBLIC "-//W3C//DTD SVG 20010904//EN"
              "http://www.w3.org/TR/2001/REC-SVG-20010904/DTD/svg10.dtd">
<!-- ******************************************** -->
<!-- ************ Created by RomLabo ************ -->
<!-- ******************************************** -->
<svg xmlns="http://www.w3.org/2000/svg" width="100%" height="100%" 
    viewBox="0 0 512 512" class="header__svg">
    <!-- ******************************************** -->
    <!-- ************ Created by RomLabo ************ -->
    <!-- ******************************************** -->
    <path id="info__line1" style="fill: #348ada; stroke:none"
    d="M 247.00,149.65 C 266.14,145.75 271.52,170.20 255.00,175.35
    245.94,178.18 236.12,170.66 237.20,161.00 237.86,155.07 241.83,151.82 247.00,149.65 Z
    M 142.00,103.00 C 142.00,103.00 357.00,103.00 357.00,103.00
    357.00,103.00 400.00,104.00 401.00,140.00 402.00,176.00 401.00,311.00 401.00,311.00
    401.00,311.00 401.00,348.00 355.00,348.00 355.00,349.00 355.00,396.00 355.00,396.00
    355.00,396.00 351.00,406.00 343.00,406.00 335.00,406.00 330.00,404.00 323.00,396.00
    316.00,388.00 275.00,347.00 275.00,347.00 275.00,347.00 145.00,347.00 145.00,347.00
    145.00,347.00 107.00,338.00 106.00,305.00 105.00,272.00 106.00,164.00 106.00,164.00
    106.00,164.00 106.00,153.00 119.00,153.00 132.00,153.00 132.00,163.00 132.00,163.00
    132.00,163.00 133.00,302.00 133.00,302.00 133.00,302.00 132.00,322.00 160.00,322.00
    188.00,322.00 271.00,322.00 271.00,322.00 271.00,322.00 289.00,322.00 302.00,336.00
    315.00,350.00 330.00,357.00 330.00,357.00 330.00,357.00 330.00,337.00 330.00,337.00
    330.00,337.00 328.00,326.00 349.00,324.00 355.00,322.00 376.00,322.00 376.00,303.00
    376.00,284.00 376.00,150.00 376.00,150.00 376.00,150.00 374.00,128.00 355.00,127.00
    336.00,126.00 124.00,127.00 124.00,127.00 124.00,127.00 112.00,124.00 112.00,114.00
    112.00,104.00 125.00,103.00 125.00,103.00 125.00,103.00 142.00,103.00 142.00,103.00 Z
    M 223.00,189.00 C 223.00,189.00 251.00,189.00 251.00,189.00
    251.00,189.00 265.00,189.00 265.00,207.00 265.00,221.00 265.00,272.00 265.00,272.00
    265.00,272.00 297.00,271.00 297.00,271.00 297.00,271.00 309.00,276.00 309.00,284.00
    309.00,292.00 298.00,295.00 298.00,295.00 298.00,295.00 210.00,296.00 210.00,296.00
    210.00,296.00 199.00,292.00 199.00,284.00 199.00,276.00 209.00,273.00 209.00,273.00
    209.00,273.00 239.00,273.00 239.00,273.00 239.00,273.00 239.00,215.00 239.00,215.00
    239.00,215.00 214.00,214.00 214.00,214.00 214.00,214.00 202.00,212.00 202.00,202.00
    202.00,192.00 213.00,189.00 213.00,189.00 213.00,189.00 223.00,189.00 223.00,189.00 Z" />
</svg>
