<?xml version="1.0" encoding="UTF-8" standalone="no"?>
<!DOCTYPE svg PUBLIC "-//W3C//DTD SVG 20010904//EN"
              "http://www.w3.org/TR/2001/REC-SVG-20010904/DTD/svg10.dtd">
<!-- ******************************************** -->
<!-- ************ Created by RomLabo ************ -->
<!-- ******************************************** -->
<svg xmlns="http://www.w3.org/2000/svg" width="100%" height="100%" 
    viewBox="0 0 512 512" class="header__svg">
    <!-- ******************************************** -->
    <!-- ************ Created by RomLabo ************ -->
    <!-- ******************************************** -->
    <path id="new__line1" style="fill: #348ada; stroke:none"
    d="M 108.00,153.46 C 108.00,205.78 108.00,335.00 108.00,335.00
    108.00,335.00 106.00,363.50 134.50,363.50 163.00,363.50 260.50,363.50 260.50,363.50
    260.50,363.50 272.00,363.00 272.50,347.50 272.50,348.00 273.00,341.00 273.20,340.81
    273.00,329.50 274.02,318.55 279.37,308.00 288.69,289.63 304.29,280.08 324.00,276.22
    324.00,276.22 336.50,276.00 337.00,262.50 337.50,249.00 337.00,186.50 337.00,186.50
    337.00,186.50 337.50,181.00 334.00,177.50 330.50,174.00 277.50,119.50 277.50,119.50
    277.50,119.50 264.50,108.50 239.50,108.50 214.50,108.50 134.50,109.00 134.50,109.00
    134.50,109.00 108.00,107.00 108.00,136.50 108.00,140.01 108.00,146.32 108.00,153.27
    108.09,153.36 134.09,153.43 134.09,153.43 134.06,147.76 134.00,134.50 134.00,134.50
    134.00,134.50 253.00,134.00 253.00,134.00 253.00,134.00 310.00,191.00 310.00,191.00
    310.00,191.00 310.00,253.00 309.74,253.03 283.04,258.68 262.10,273.64 251.45,300.00
    247.67,309.38 245.88,319.09 245.88,328.66 246.00,328.50 245.50,337.50 245.50,337.50
    245.50,337.50 135.00,337.50 135.00,337.50 135.00,337.50 134.36,205.22 134.10,153.58
    134.10,153.58 108.00,153.46 108.00,153.46 Z M 347.50,310.50
    C 347.50,310.50 347.50,333.00 347.50,333.00 347.50,333.00 316.50,333.50 316.50,333.50
    316.50,333.50 305.00,334.50 305.00,346.50 305.00,358.50 316.00,359.00 316.00,359.00
    316.00,359.00 348.00,359.00 348.00,359.00 348.00,359.00 348.00,392.00 348.00,392.00
    348.00,392.00 350.50,403.00 360.50,402.50 371.50,403.00 374.50,394.00 374.50,394.00
    374.50,394.00 375.00,359.50 375.00,359.50 375.00,359.50 405.00,359.50 405.00,359.50
    405.00,359.50 414.50,358.50 414.50,346.50 414.50,334.50 405.50,333.50 405.50,333.50
    405.50,333.50 374.50,333.00 374.50,333.00 374.50,333.00 374.50,304.50 374.50,304.50
    374.50,304.50 374.00,293.00 361.00,293.00 348.00,293.00 348.00,303.50 348.00,303.50
    348.00,303.50 347.50,310.50 347.50,310.50 Z" />
</svg>
