<?xml version="1.0" encoding="UTF-8" standalone="no"?>
<!DOCTYPE svg PUBLIC "-//W3C//DTD SVG 20010904//EN"
              "http://www.w3.org/TR/2001/REC-SVG-20010904/DTD/svg10.dtd">
<!-- ******************************************** -->
<!-- ************ Created by RomLabo ************ -->
<!-- ******************************************** -->
<svg xmlns="http://www.w3.org/2000/svg" width="100%" height="100%" 
    viewBox="0 0 512 512" class="header__svg">
    <!-- ******************************************** -->
    <!-- ************ Created by RomLabo ************ -->
    <!-- ******************************************** -->
    <path id="open__line1" style="fill: #348ada; stroke:none"
    d="M 360.00,193.50 C 360.00,193.50 362.50,172.00 320.00,171.50
    277.50,171.00 272.50,171.50 272.50,171.50 272.50,171.50 260.50,172.00 252.00,165.00
    243.50,158.00 226.00,143.50 226.00,143.50 226.00,143.50 216.00,137.00 205.00,137.00
    194.00,137.00 147.00,136.50 147.00,136.50 147.00,136.50 104.50,133.50 104.50,178.00
    104.50,206.80 104.50,268.89 104.50,309.13 104.50,309.00 130.00,265.50 130.61,265.64
    130.50,223.61 130.50,178.50 130.50,178.50 130.50,178.50 129.50,162.50 148.00,162.50
    166.50,162.50 200.00,162.50 200.00,162.50 200.00,162.50 213.50,163.50 220.50,172.00
    227.50,180.50 242.50,191.00 242.50,191.00 242.50,191.00 252.00,197.50 269.00,197.00
    286.00,196.50 319.50,196.00 319.50,196.00 319.50,196.00 334.50,195.00 334.50,205.00
    334.50,211.00 338.50,215.50 346.50,215.50 354.50,215.50 360.00,213.00 360.00,205.50
    360.00,198.00 360.00,193.50 360.00,193.50 Z M 170.00,380.00
    C 220.50,380.00 328.00,380.50 328.00,380.50 328.00,380.50 339.00,382.00 348.00,368.00
    357.00,354.00 410.00,274.00 410.00,274.00 410.00,274.00 422.00,242.00 391.00,240.50
    360.00,239.00 203.00,239.50 203.00,239.50 203.00,239.50 179.50,235.00 169.50,252.00
    159.50,269.00 114.50,347.00 114.50,347.00 114.50,347.00 98.00,380.00 136.50,380.00
    146.00,380.00 170.00,380.50 170.00,380.00 Z M 193.00,266.00
    C 193.00,266.00 383.50,266.00 383.50,266.00 383.50,266.00 324.50,353.00 324.50,353.00
    324.50,353.00 142.00,354.00 142.00,354.00 142.00,354.00 193.00,266.00 193.00,266.00 Z" />
</svg>
