<?xml version="1.0" encoding="UTF-8" standalone="no"?>
<!DOCTYPE svg PUBLIC "-//W3C//DTD SVG 20010904//EN"
              "http://www.w3.org/TR/2001/REC-SVG-20010904/DTD/svg10.dtd">
<!-- ******************************************** -->
<!-- ************ Created by RomLabo ************ -->
<!-- ******************************************** -->
<svg xmlns="http://www.w3.org/2000/svg" width="100%" height="100%" 
    viewBox="0 0 512 512" class="header__svg">
    <!-- ******************************************** -->
    <!-- ************ Created by RomLabo ************ -->
    <!-- ******************************************** -->
    <path id="breakdown__line1" style="fill: #08121a; stroke:none"
    d="M 0.00,0.00 C 0.00,0.00 512.00,0.00 512.00,0.00
    512.00,0.00 512.00,512.00 512.00,512.00 512.00,512.00 0.00,512.00 0.00,512.00
    0.00,512.00 0.00,0.00 0.00,0.00 Z" />
    <path id="breakdown__line2" style="fill: #348ada; stroke:none"
    d="M 139.00,273.57 C 139.00,307.94 139.00,335.00 139.00,335.00
    139.00,335.00 137.00,363.50 165.50,363.50 194.00,363.50 291.50,363.50 291.50,363.50
    291.50,363.50 303.00,363.00 303.50,347.50 303.50,348.00 304.00,341.00 304.20,340.81
    304.00,329.50 305.02,318.55 310.37,308.00 319.69,289.63 335.29,280.08 355.00,276.22
    355.00,276.22 367.50,276.00 368.00,262.50 368.50,249.00 368.00,186.50 368.00,186.50
    368.00,186.50 368.50,181.00 365.00,177.50 361.50,174.00 309.50,119.50 309.50,119.50
    309.50,119.50 296.50,108.50 271.50,108.50 246.50,108.50 165.50,109.00 165.50,109.00
    165.50,109.00 139.00,107.00 139.00,136.50 139.00,140.01 139.50,230.00 139.50,230.00
    139.50,230.00 165.50,230.00 165.50,230.00 165.50,230.00 165.00,134.50 165.00,134.50
    165.00,134.50 285.00,134.00 285.00,134.00 285.00,134.00 341.00,191.00 341.00,191.00
    341.00,191.00 341.00,253.00 340.74,253.03 314.04,258.68 293.10,273.64 282.45,300.00
    278.67,309.38 276.88,319.09 276.88,328.66 277.00,328.50 276.50,337.50 276.50,337.50
    276.50,337.50 166.00,337.50 166.00,337.50 166.00,337.50 165.86,309.05 165.69,273.39
    166.00,274.00 139.50,274.00 139.00,273.57 Z M 379.50,310.50
    C 379.50,310.50 379.50,333.00 379.50,333.00 379.50,333.00 348.50,333.50 348.50,333.50
    348.50,333.50 337.00,334.50 337.00,346.50 337.00,358.50 348.00,359.00 348.00,359.00
    348.00,359.00 380.00,359.00 380.00,359.00 380.00,359.00 380.00,392.00 380.00,392.00
    380.00,392.00 382.50,403.00 392.50,402.50 403.50,403.00 406.50,394.00 406.50,394.00
    406.50,394.00 407.00,359.50 407.00,359.50 407.00,359.50 437.00,359.50 437.00,359.50
    437.00,359.50 446.50,358.50 446.50,346.50 446.50,334.50 437.50,333.50 437.50,333.50
    437.50,333.50 406.50,333.00 406.50,333.00 406.50,333.00 406.50,304.50 406.50,304.50
    406.50,304.50 406.00,293.00 393.00,293.00 380.00,293.00 380.00,303.50 380.00,303.50
    380.00,303.50 379.50,310.50 379.50,310.50 Z M 217.00,238.50
    C 217.00,238.50 93.50,239.00 93.50,239.00 93.50,239.00 83.00,240.00 83.00,251.50
    83.00,263.00 93.50,264.50 93.50,264.50 93.50,264.50 215.00,265.50 215.00,265.50
    215.00,265.50 203.50,286.50 203.50,286.50 203.50,286.50 197.50,296.50 207.50,302.50
    217.50,308.50 226.50,297.50 226.50,297.50 226.50,297.50 248.50,261.00 248.50,261.00
    248.50,261.00 255.50,250.50 249.50,240.50 243.50,230.50 229.00,206.00 229.00,206.00
    229.00,206.00 221.00,196.50 211.50,202.00 202.00,207.50 205.50,218.50 205.50,218.50
    205.50,218.50 217.00,238.50 217.00,238.50 Z" />
</svg>
