<?xml version="1.0" encoding="UTF-8" standalone="no"?>
<!DOCTYPE svg PUBLIC "-//W3C//DTD SVG 20010904//EN"
              "http://www.w3.org/TR/2001/REC-SVG-20010904/DTD/svg10.dtd">
<!-- ******************************************** -->
<!-- ************ Created by RomLabo ************ -->
<!-- ******************************************** -->
<svg xmlns="http://www.w3.org/2000/svg" width="100%" height="100%" 
    viewBox="0 0 512 512" class="header__svg">
    <!-- ******************************************** -->
    <!-- ************ Created by RomLabo ************ -->
    <!-- ******************************************** -->
    <path id="erase__line1" style="fill: #348ada; stroke:none"
    d="M 249.00,233.31 C 251.22,233.17 252.72,232.94 255.00,233.31
    280.35,234.86 278.08,273.72 252.00,271.90 231.24,270.46 226.14,240.36 249.00,233.31 Z
    M 386.50,265.00 C 386.50,265.00 396.00,263.50 396.00,253.00
    396.00,242.50 387.50,240.00 387.50,240.00 387.50,240.00 376.00,239.50 375.56,239.75
    373.63,215.18 364.60,190.59 348.54,171.00 332.81,151.82 312.45,138.83 289.00,131.34
    282.13,129.15 274.26,127.47 265.84,126.58 266.00,126.50 266.00,114.50 266.00,114.50
    266.00,114.50 264.50,105.00 252.50,105.00 240.50,105.00 240.50,115.00 240.50,115.00
    240.50,115.00 240.50,120.00 240.50,126.42 232.79,127.54 228.70,128.04 221.00,130.15
    185.95,139.74 156.52,163.79 141.31,197.00 134.74,211.35 131.11,226.24 130.15,241.01
    124.00,241.50 116.50,241.00 116.50,241.00 116.50,241.00 105.50,243.00 105.00,254.00
    104.50,265.00 115.00,267.00 115.00,267.00 115.00,267.00 131.50,267.00 131.28,266.90
    137.90,310.79 167.97,350.32 214.00,365.67 221.83,368.28 231.61,370.58 240.57,371.53
    240.50,371.50 240.50,385.50 240.50,385.50 240.50,385.50 243.50,395.50 254.50,395.50
    265.50,395.50 267.00,386.00 267.00,386.00 267.00,386.00 267.00,371.00 266.92,371.16
    281.06,369.64 294.38,365.96 308.00,359.24 322.15,352.27 330.95,345.11 342.00,334.00
    360.60,315.31 371.53,290.15 374.86,264.96 375.50,265.50 386.50,265.00 386.50,265.00 Z
    M 350.83,265.35 C 348.09,282.25 340.81,299.09 328.71,313.00
    319.44,323.66 309.62,331.03 297.00,337.24 287.39,341.98 276.65,344.72 266.53,346.04
    266.50,345.50 266.50,315.00 266.50,315.00 266.50,315.00 253.50,301.00 253.50,301.00
    253.50,301.00 240.50,314.00 240.50,314.00 240.50,314.00 240.50,338.00 240.38,346.16
    234.06,345.20 227.59,343.53 222.00,341.67 187.26,330.08 163.52,300.39 157.40,266.63
    167.00,267.00 190.50,266.50 190.50,266.50 190.50,266.50 203.50,253.50 203.50,253.50
    203.50,253.50 192.00,241.00 192.00,241.00 192.00,241.00 165.50,241.00 156.19,241.20
    156.84,233.45 158.45,225.66 161.08,218.00 173.83,180.81 202.96,159.48 240.04,152.48
    240.00,152.50 240.00,193.50 240.00,193.50 240.00,193.50 254.00,205.00 254.00,205.00
    254.00,205.00 265.50,192.50 265.50,192.50 265.50,192.50 266.00,162.00 265.88,152.68
    274.10,153.65 282.69,156.03 290.00,158.69 300.07,162.36 312.17,169.83 320.00,177.09
    338.22,193.98 348.95,217.40 351.49,240.57 351.50,240.50 314.00,240.50 314.00,240.50
    314.00,240.50 299.50,252.50 299.50,252.50 299.50,252.50 313.00,265.50 313.00,265.50
    313.00,265.50 351.00,265.50 350.83,265.35 Z" />
</svg>
