<?xml version="1.0" encoding="UTF-8" standalone="no"?>
<!DOCTYPE svg PUBLIC "-//W3C//DTD SVG 20010904//EN"
              "http://www.w3.org/TR/2001/REC-SVG-20010904/DTD/svg10.dtd">
<!-- ******************************************** -->
<!-- ************ Created by RomLabo ************ -->
<!-- ******************************************** -->
<svg xmlns="http://www.w3.org/2000/svg" width="100%" height="100%" 
    viewBox="0 0 512 512" class="header__svg">
    <!-- ******************************************** -->
    <!-- ************ Created by RomLabo ************ -->
    <!-- ******************************************** -->
    <path id="link__line1" style="fill: #08121a; stroke:none"
    d="M 0.00,0.00 C 0.00,0.00 512.00,0.00 512.00,0.00
    512.00,0.00 512.00,512.00 512.00,512.00 512.00,512.00 0.00,512.00 0.00,512.00
    0.00,512.00 0.00,0.00 0.00,0.00 Z" />
    <path id="link__line2" style="fill: #348ada; stroke:none"
    d="M 176.50,131.00 C 176.50,131.00 176.50,156.50 176.50,156.50
    176.50,156.50 363.50,156.50 363.50,156.50 363.50,156.50 363.50,130.50 363.50,130.50
    363.50,130.50 176.50,131.00 176.50,131.00 Z M 248.17,310.00
    C 280.87,310.00 307.00,310.00 307.00,310.00 307.00,310.00 316.00,310.00 330.00,310.00
    344.00,310.00 344.50,322.50 344.50,322.50 344.50,322.50 344.50,363.00 344.50,378.50
    344.50,394.00 331.00,392.00 331.00,392.00 331.00,392.00 135.50,392.00 121.00,392.00
    106.50,392.00 107.50,374.00 107.50,374.00 107.50,374.00 107.50,335.50 107.50,323.00
    107.50,310.50 120.50,310.00 120.50,310.00 120.50,310.00 172.42,310.00 221.46,310.00
    221.50,310.00 255.50,182.50 255.50,182.50 210.97,182.50 169.59,182.50 163.50,182.50
    149.50,182.50 151.00,169.00 151.00,169.00 151.00,169.00 151.00,137.50 151.00,137.50
    151.00,137.50 151.00,129.50 151.00,117.50 151.00,105.50 166.00,105.00 166.00,105.00
    166.00,105.00 359.50,105.00 376.50,105.00 393.50,105.00 390.00,123.50 390.00,123.50
    390.00,123.50 389.50,155.00 389.50,169.00 389.50,183.00 376.50,182.50 376.50,182.50
    376.50,182.50 330.92,182.50 281.80,182.50 282.50,182.50 248.50,310.00 248.17,310.00 Z
    M 134.00,336.50 C 134.00,336.50 134.00,367.00 134.00,367.00
    134.00,367.00 318.50,366.50 318.50,366.50 318.50,366.50 318.50,336.00 318.50,336.00
    318.50,336.00 134.00,336.50 134.00,336.50 Z" />
</svg>
