<?xml version="1.0" encoding="UTF-8" standalone="no"?>
<!DOCTYPE svg PUBLIC "-//W3C//DTD SVG 20010904//EN"
              "http://www.w3.org/TR/2001/REC-SVG-20010904/DTD/svg10.dtd">
<!-- ******************************************** -->
<!-- ************ Created by RomLabo ************ -->
<!-- ******************************************** -->
<svg xmlns="http://www.w3.org/2000/svg" width="100%" height="100%" 
    viewBox="0 0 512 512" class="header__svg">
    <!-- ******************************************** -->
    <!-- ************ Created by RomLabo ************ -->
    <!-- ******************************************** -->
    <path id="modify__line1" style="fill: #348ada; stroke:none"
    d="M 332.00,392.50 C 332.00,392.50 220.50,393.00 220.50,393.00
    220.50,393.00 237.00,375.50 237.00,375.50 237.00,375.50 338.50,375.00 338.50,375.00
    338.50,375.00 350.00,375.00 350.00,383.00 350.00,391.00 339.00,392.50 339.00,392.50
    339.00,392.50 332.00,392.50 332.00,392.50 Z M 366.50,174.00
    C 366.50,174.00 357.00,184.00 357.00,184.00 357.00,184.00 352.00,192.00 358.00,198.00
    364.00,204.00 374.00,201.00 374.00,201.00 374.00,201.00 388.50,186.50 388.50,186.50
    388.50,186.50 402.50,172.50 389.50,159.50 376.50,146.50 350.50,121.00 350.50,121.00
    350.50,121.00 330.50,106.50 311.50,125.50 292.50,144.50 274.00,164.00 274.00,164.00
    274.00,164.00 265.00,176.00 280.00,190.00 295.00,204.00 316.00,224.50 316.00,224.50
    316.00,224.50 193.50,348.00 193.50,348.00 193.50,348.00 147.50,360.00 147.50,360.00
    147.50,360.00 159.00,315.00 159.00,315.00 159.00,315.00 256.00,217.50 256.00,217.50
    256.00,217.50 262.00,208.00 255.50,201.00 249.00,194.00 237.50,200.00 237.50,200.00
    237.50,200.00 136.00,302.50 136.00,302.50 136.00,302.50 116.50,373.00 116.50,373.00
    116.50,373.00 111.50,394.50 132.00,390.50 152.50,386.50 205.50,371.00 205.50,371.00
    205.50,371.00 338.00,238.50 338.00,238.50 338.00,238.50 348.50,221.50 331.50,204.50
    314.50,187.50 300.50,173.00 300.50,173.00 300.50,173.00 333.50,140.50 333.50,140.50
    333.50,140.50 366.50,174.00 366.50,174.00 Z" />
</svg>
