<?xml version="1.0" encoding="UTF-8" standalone="no"?>
<!DOCTYPE svg PUBLIC "-//W3C//DTD SVG 20010904//EN"
              "http://www.w3.org/TR/2001/REC-SVG-20010904/DTD/svg10.dtd">
<!-- ******************************************** -->
<!-- ************ Created by RomLabo ************ -->
<!-- ******************************************** -->
<svg xmlns="http://www.w3.org/2000/svg" width="100%" height="100%" 
    viewBox="0 0 512 512" class="header__svg">
    <!-- ******************************************** -->
    <!-- ************ Created by RomLabo ************ -->
    <!-- ******************************************** -->
    <path id="redo__line1" style="fill: #348ada; stroke:none"
    d="M 303.00,292.00 C 315.00,280.00 293.00,274.00 293.14,273.72
    239.67,273.18 125.00,272.00 125.00,272.00 125.00,272.00 105.00,273.00 105.00,252.00
    105.00,231.00 123.00,232.00 123.00,232.00 123.00,232.00 145.00,232.00 145.00,232.00
    145.00,232.00 376.00,232.00 376.00,232.00 376.00,232.00 391.00,236.00 391.00,252.00
    387.00,267.00 382.00,271.00 382.00,271.00 382.00,271.00 283.00,369.00 283.00,369.00
    283.00,369.00 269.00,381.00 256.00,370.00 243.00,359.00 251.00,346.00 251.00,346.00
    251.00,346.00 291.00,304.00 303.00,292.00 Z M 281.00,191.00
    C 281.00,191.00 337.00,191.00 337.00,191.00 337.00,191.00 282.00,136.00 282.00,136.00
    282.00,136.00 267.00,126.00 256.00,137.00 245.00,148.00 254.00,164.00 254.00,164.00
    254.00,164.00 281.00,191.00 281.00,191.00 Z" />
</svg>
