<?xml version="1.0" encoding="UTF-8" standalone="no"?>
<!DOCTYPE svg PUBLIC "-//W3C//DTD SVG 20010904//EN"
              "http://www.w3.org/TR/2001/REC-SVG-20010904/DTD/svg10.dtd">
<!-- ******************************************** -->
<!-- ************ Created by RomLabo ************ -->
<!-- ******************************************** -->
<svg xmlns="http://www.w3.org/2000/svg" width="100%" height="100%" 
    viewBox="0 0 512 512" class="header__svg">
    <!-- ******************************************** -->
    <!-- ************ Created by RomLabo ************ -->
    <!-- ******************************************** -->
    <path id="save__line1" style="fill: #348ada; stroke:none"
    d="M 327.00,343.00 C 341.76,340.29 341.74,360.02 330.98,363.35
    319.61,366.86 313.88,348.78 327.00,343.00 Z M 234.00,127.00
    C 234.00,127.00 233.00,107.00 252.00,106.00 271.00,105.00 274.00,126.00 274.00,126.00
    274.00,126.00 274.00,243.00 274.00,243.00 274.00,243.00 277.00,252.00 285.00,244.00
    293.00,236.00 313.00,218.00 313.00,218.00 313.00,218.00 329.00,209.00 338.00,218.00
    347.00,227.00 341.00,243.00 341.00,243.00 341.00,243.00 273.00,312.00 273.00,312.00
    273.00,312.00 258.00,332.00 236.00,312.00 214.00,292.00 167.00,243.00 167.00,243.00
    167.00,243.00 156.00,231.00 167.00,219.00 178.00,207.00 193.00,216.00 193.00,216.00
    193.00,216.00 224.00,246.00 224.00,246.00 224.00,246.00 234.00,250.00 234.00,240.00
    234.00,230.00 234.00,127.00 234.00,127.00 Z M 106.00,386.00
    C 106.00,407.00 132.00,410.00 132.00,410.00 132.00,410.00 356.00,410.00 373.00,410.00
    394.00,408.00 396.00,384.00 396.00,384.00 396.00,384.00 396.00,320.00 396.00,320.00
    396.00,320.00 389.00,297.00 370.00,297.00 351.00,297.00 325.00,296.00 325.00,296.00
    325.00,296.00 302.00,320.00 302.00,320.00 302.00,320.00 334.50,320.49 354.23,320.78
    362.83,320.91 369.00,327.44 369.00,336.23 369.00,347.82 369.00,363.51 369.00,373.93
    369.00,380.52 363.00,385.00 352.89,385.00 309.53,385.00 190.67,385.00 147.20,385.00
    137.04,385.00 131.00,380.20 131.00,373.24 131.00,361.85 131.00,344.66 131.00,333.15
    131.00,325.97 136.26,321.00 144.00,321.00 165.48,321.00 206.00,321.00 206.00,321.00
    206.00,321.00 179.00,295.00 179.00,295.00 179.00,295.00 134.00,294.00 134.00,294.00
    134.00,294.00 106.00,299.00 106.00,324.00 106.00,341.00 106.00,374.00 106.00,386.00 Z" />
</svg>
