<?xml version="1.0" encoding="UTF-8" standalone="no"?>
<!DOCTYPE svg PUBLIC "-//W3C//DTD SVG 20010904//EN"
              "http://www.w3.org/TR/2001/REC-SVG-20010904/DTD/svg10.dtd">
<!-- ******************************************** -->
<!-- ************ Created by RomLabo ************ -->
<!-- ******************************************** -->
<svg xmlns="http://www.w3.org/2000/svg" width="100%" height="100%" 
    viewBox="0 0 512 512" class="header__svg">
    <!-- ******************************************** -->
    <!-- ************ Created by RomLabo ************ -->
    <!-- ******************************************** -->
    <path id="tab__line1" style="fill: #348ada; stroke:#08121a"
    d="M 457.00,214.44 C 463.19,213.64 469.00,213.92 475.00,215.77
    479.48,217.15 485.41,220.33 489.00,223.33 515.22,245.22 502.83,288.23 469.00,293.56
    429.18,299.84 406.51,248.78 437.00,223.33 442.89,218.41 449.56,215.83 457.00,214.44 Z
    M 247.00,214.44 C 253.19,213.64 259.00,213.92 265.00,215.77
    269.48,217.15 275.41,220.33 279.00,223.33 305.22,245.22 292.83,288.23 259.00,293.56
    219.18,299.84 196.51,248.78 227.00,223.33 232.89,218.41 239.56,215.83 247.00,214.44 Z
    M 41.00,214.44 C 47.19,213.64 53.00,213.92 59.00,215.77
    63.48,217.15 69.41,220.33 73.00,223.33 99.22,245.22 86.83,288.23 53.00,293.56
    13.18,299.84 -9.49,248.78 21.00,223.33 26.89,218.41 33.56,215.83 41.00,214.44 Z" />
</svg>
