<?xml version="1.0" encoding="UTF-8" standalone="no"?>
<!DOCTYPE svg PUBLIC "-//W3C//DTD SVG 20010904//EN"
              "http://www.w3.org/TR/2001/REC-SVG-20010904/DTD/svg10.dtd">
<!-- ******************************************** -->
<!-- ************ Created by RomLabo ************ -->
<!-- ******************************************** -->
<svg xmlns="http://www.w3.org/2000/svg" width="100%" height="100%" 
    viewBox="0 0 512 512" class="header__svg">
    <!-- ******************************************** -->
    <!-- ************ Created by RomLabo ************ -->
    <!-- ******************************************** -->
    <path id="undo__line1" style="fill: #348ada; stroke:none"
    d="M 211.50,311.00 C 222.00,321.00 250.00,348.50 250.00,348.50
    250.00,348.50 258.00,363.50 246.50,373.50 235.00,383.50 224.00,378.00 224.00,378.00
    224.00,378.00 153.00,310.50 153.00,310.50 153.00,310.50 211.00,311.50 211.50,311.00 Z
    M 111.50,271.00 C 111.50,271.00 102.50,262.50 102.50,252.50
    102.50,242.50 108.00,239.00 108.00,239.00 108.00,239.00 221.00,130.50 221.00,130.50
    221.00,130.50 236.00,123.00 246.50,134.00 257.00,145.00 247.00,158.50 247.00,158.50
    247.00,158.50 240.00,166.50 240.00,166.50 240.00,166.50 192.00,213.50 192.00,213.50
    192.00,213.50 177.00,228.00 194.50,232.00 212.50,232.00 377.50,232.00 377.50,232.00
    377.50,232.00 393.50,234.50 393.50,250.50 393.50,266.50 379.50,270.00 379.50,270.00
    379.50,270.00 111.50,271.00 111.50,271.00 Z" />
</svg>
